<?xml version="1.0" encoding="UTF-8" standalone="no"?>
<svg
   xmlns:dc="http://purl.org/dc/elements/1.1/"
   xmlns:cc="http://creativecommons.org/ns#"
   xmlns:rdf="http://www.w3.org/1999/02/22-rdf-syntax-ns#"
   xmlns:svg="http://www.w3.org/2000/svg"
   xmlns="http://www.w3.org/2000/svg"
   id="svg8"
   version="1.1"
   viewBox="0 0 187.04085 239.01627"
   height="239.01627mm"
   width="187.04085mm">
  <defs
     id="defs2" />
  <metadata
     id="metadata5">
    <rdf:RDF>
      <cc:Work
         rdf:about="">
        <dc:format>image/svg+xml</dc:format>
        <dc:type
           rdf:resource="http://purl.org/dc/dcmitype/StillImage" />
        <dc:title></dc:title>
      </cc:Work>
    </rdf:RDF>
  </metadata>
  <g
     transform="translate(-144.60458,-98.962103)"
     id="layer1">
    <path
       style="fill:#000000;stroke-width:0.185249"
       d="m 227.1955,332.18578 c -13.26935,-0.74321 -23.87265,-2.45594 -31.66493,-5.1148 -2.75862,-0.94127 -6.99926,-2.93595 -8.82779,-4.15235 -0.89718,-0.59683 -2.25502,-1.67127 -3.01742,-2.38768 l -1.38619,-1.30252 -2.2121,-8.37216 c -1.21665,-4.60467 -2.21209,-8.40684 -2.21209,-8.44925 0,-0.0423 0.35647,-0.0771 0.79216,-0.0771 h 0.79216 l -0.11485,-0.67058 c -0.0632,-0.36881 -5.90329,-35.99652 -12.97804,-79.17269 -7.23981,-44.18346 -13.02626,-78.97856 -13.23621,-79.59194 -1.2799,-3.73941 -0.77608,-7.53393 1.46625,-11.04322 1.08763,-1.70215 4.22259,-4.76017 6.39057,-6.23373 11.82654,-8.03839 34.4167,-13.63051 62.37031,-15.43954 9.3735,-0.60662 24.61304,-0.60552 33.8719,0.003 22.95221,1.5071 41.93736,5.41842 54.69397,11.26804 9.73243,4.46288 14.73636,9.18234 15.95602,15.04895 0.18132,0.87219 0.41036,1.63651 0.50897,1.69849 0.10414,0.0655 -6.666,33.56364 -16.15504,79.93388 -8.98388,43.90167 -16.33432,79.92125 -16.33432,80.04353 0,0.14428 0.30316,0.22231 0.86358,0.22231 0.47497,0 0.86359,0.0328 0.86359,0.0728 0,0.04 -0.56639,2.6754 -1.25865,5.85637 -1.11902,5.14192 -2.20932,9.69657 -3.88772,16.24073 l -0.52644,2.05257 -1.91333,1.06202 c -7.77063,4.31312 -19.60616,6.91066 -37.60835,8.25387 -4.47997,0.33427 -20.84663,0.49745 -25.23601,0.2516 z m 19.57471,-12.69351 c 13.36403,-0.64597 25.19542,-2.44082 31.84829,-4.83147 1.23104,-0.44235 1.51759,-0.61897 1.59188,-0.98115 0.0499,-0.24294 0.0568,-0.4417 0.0156,-0.4417 -0.0413,0 -1.34081,0.36616 -2.88782,0.81369 -9.08314,2.62769 -18.01906,4.11715 -29.60836,4.93522 -4.04835,0.28577 -17.02798,0.28693 -20.91807,0.002 -9.53867,-0.69895 -17.96376,-2.02026 -25.23598,-3.95776 -4.06172,-1.08213 -4.2341,-0.83368 -0.28786,0.41494 6.51638,2.06183 15.85174,3.47974 26.57935,4.03699 4.02796,0.20924 14.65914,0.21452 18.90302,0.009 z m -44.90665,-17.95835 c 2.69152,-0.0603 5.35072,-0.15682 5.90933,-0.21475 l 1.01565,-0.10528 -0.12958,-1.54313 c -0.0713,-0.84872 -0.13971,-1.5564 -0.15207,-1.5726 -0.15621,-0.20483 -11.53998,2.05722 -12.16296,2.41686 -0.37153,0.2145 -0.0856,1.31077 0.31511,1.20804 0.17097,-0.0438 2.51301,-0.12895 5.20452,-0.18914 z m 22.06949,-0.72452 c 1.84713,-0.0527 4.15722,-0.14199 5.13356,-0.19844 l 1.77515,-0.10262 v -2.0996 -2.09959 l -1.58324,0.0658 c -8.06365,0.33502 -13.58939,0.76872 -13.71616,1.07654 -0.054,0.13112 -0.036,1.01063 0.0399,1.95449 l 0.13808,1.71606 2.42715,-0.1084 c 1.33494,-0.0596 3.93844,-0.15153 5.78556,-0.20423 z m 21.58975,-0.71539 c 1.8999,-0.053 4.28395,-0.14273 5.2979,-0.19942 l 1.84353,-0.10307 0.20206,-1.54722 c 0.11115,-0.85097 0.16461,-1.58272 0.11883,-1.62613 -0.15652,-0.14833 -5.92214,-0.34176 -10.58084,-0.35496 l -4.65379,-0.0131 v 2.07787 2.07788 l 2.15898,-0.10772 c 1.18743,-0.0592 3.71343,-0.15106 5.61333,-0.20404 z m 23.67604,-0.79966 c 2.57239,-0.0853 4.75995,-0.23231 4.86126,-0.32672 0.11767,-0.10965 -0.42799,-0.27489 -1.51057,-0.45747 -2.10486,-0.35499 -8.30295,-1.12765 -10.23472,-1.27587 -0.79162,-0.0607 -1.6274,-0.14617 -1.85729,-0.18988 -0.38032,-0.0723 -0.42926,0.0131 -0.54347,0.94893 -0.0691,0.56562 -0.16854,1.1725 -0.22115,1.34866 -0.0896,0.29968 0.0626,0.31343 2.36659,0.21386 1.35425,-0.0585 4.56696,-0.17619 7.13935,-0.26151 z m -80.62173,-2.84574 c 0.18118,-0.0945 0.26637,-0.23051 0.18931,-0.30231 -0.20604,-0.192 -2.91163,1.39481 -2.9852,1.75079 -0.0452,0.21827 0.29286,0.0814 1.20185,-0.48652 0.69555,-0.43459 1.41287,-0.86747 1.59404,-0.96196 z M 297.99967,251.8094 c 4.86284,-24.38902 8.9172,-44.68816 9.00966,-45.1092 0.15996,-0.72843 0.14825,-0.76023 -0.24169,-0.6561 -0.88799,0.23713 -3.23216,1.34388 -4.3806,2.06822 -1.49439,0.94255 -4.00238,3.27576 -4.41082,4.10343 -0.1668,0.33802 -3.13061,15.38068 -6.58623,33.42811 -3.45562,18.04745 -6.94612,36.2724 -7.75664,40.49989 l -1.47371,7.68636 2.40772,0.74547 c 1.32424,0.41 2.88269,0.9456 3.4632,1.19022 0.58053,0.24461 1.07172,0.43181 1.09153,0.41601 0.0198,-0.0158 4.01473,-19.98339 8.87758,-44.37241 z m -111.23633,42.04646 c 0.82276,-0.33328 1.53189,-0.63948 1.57586,-0.68043 0.0668,-0.0622 -8.08976,-80.21919 -8.45317,-83.0721 -0.0996,-0.78164 -0.0691,-0.93881 0.18209,-0.93881 0.44671,0 0.39077,-0.14876 -0.64161,-1.70626 -1.04264,-1.57299 -2.67193,-3.38342 -4.14229,-4.60282 -1.96201,-1.62713 -5.4694,-3.7806 -5.4694,-3.35811 0,0.0964 3.45435,21.4608 7.67634,47.47653 4.22199,26.01573 7.67635,47.34332 7.67635,47.39465 0,0.13615 -0.0285,0.14529 1.59583,-0.51265 z m 11.67205,-0.54642 c 2.2894,-0.51155 5.13546,-1.01918 9.13745,-1.62981 0.45612,-0.0696 0.6237,-0.18908 0.6237,-0.44468 0,-0.19226 -0.11766,-0.34954 -0.26147,-0.34954 -0.57074,0 -5.17523,0.94032 -7.89464,1.61224 -4.1434,1.02375 -4.50986,1.12824 -4.50986,1.28582 0,0.18796 -0.21473,0.22301 2.90482,-0.47403 z m 84.89677,-42.36047 c 4.27293,-22.30928 7.76895,-40.59764 7.76895,-40.64082 0,-0.22601 -2.49692,-1.5341 -3.60973,-1.89108 -1.75936,-0.56439 -4.65419,-0.56377 -6.8493,9.3e-4 -3.22931,0.8316 -8.98752,3.93341 -9.3519,5.03771 -0.14601,0.44248 -10.31874,76.21972 -10.31874,76.86487 0,0.29734 0.26342,0.35894 2.35089,0.54989 2.82773,0.25865 8.74069,0.9921 10.60296,1.31519 l 1.34334,0.23305 0.1473,-0.45396 c 0.081,-0.24969 3.64331,-18.70702 7.91623,-41.01629 z m -83.5796,39.44266 c 2.05822,-0.39197 4.80271,-0.86206 6.09885,-1.04461 l 2.35664,-0.33195 -0.11311,-1.70242 c -0.0622,-0.93634 -0.88385,-18.31801 -1.82584,-38.62593 l -1.71274,-36.92349 -0.43483,-0.31404 c -0.95742,-0.69145 -3.86833,-1.95955 -5.25872,-2.2909 -2.50921,-0.59798 -4.75574,-0.37449 -6.86251,0.6827 -1.30989,0.65731 -3.44099,2.55609 -4.13036,3.68009 l -0.56341,0.91864 3.91592,38.08873 c 2.15375,20.9488 3.91781,38.23893 3.92012,38.42251 0.003,0.25301 0.10867,0.31195 0.43598,0.24356 0.23749,-0.0496 2.1158,-0.41093 4.17401,-0.80289 z m 20.43828,0.0454 c 2.11099,-0.14802 5.37104,-0.32157 7.24455,-0.38564 l 3.40637,-0.11652 v -0.59765 c 0,-0.55508 -0.0445,-0.59765 -0.62369,-0.59755 -2.41116,0 -12.22869,0.68168 -14.39316,0.99882 -0.64387,0.0943 -0.71965,0.16111 -0.71965,0.63427 0,0.49748 0.0369,0.52306 0.62369,0.43112 0.34305,-0.0537 2.35089,-0.21882 4.46189,-0.36685 z m 38.99211,-39.24974 c 2.87367,-21.39139 5.22815,-39.0946 5.23218,-39.34048 0.006,-0.35227 -0.22629,-0.58551 -1.09448,-1.10014 -1.63208,-0.9674 -3.58266,-1.83335 -5.41974,-2.40606 -1.52158,-0.47433 -1.83763,-0.50851 -4.70176,-0.50837 -2.97259,1.5e-4 -3.12871,0.0189 -4.89368,0.58747 -3.85691,1.2425 -6.85369,3.26043 -9.85102,6.63335 l -0.70396,0.79218 v 35.17479 35.17477 l 3.21447,0.0821 c 1.77967,0.0455 3.45627,0.17463 3.75619,0.28939 1.72683,0.66073 -1.26928,1.90672 -5.09954,2.12072 l -1.87112,0.10454 v 0.51046 0.51046 l 4.46188,0.0218 c 2.45403,0.0119 5.67091,0.0802 7.1486,0.15167 1.4777,0.0715 3.11657,0.12197 3.64193,0.1123 l 0.9552,-0.0175 z m -35.05798,36.03866 c 2.79707,-0.25626 5.4526,-0.50828 5.90118,-0.56004 l 0.81561,-0.0941 v -37.67885 -37.67885 l -1.10347,-0.56345 c -4.94511,-2.52502 -9.44751,-2.83882 -13.76944,-0.95967 -1.44989,0.63039 -4.19932,2.47617 -4.36524,2.9305 -0.057,0.1561 3.42254,75.45343 3.48897,75.50135 0.008,0.005 0.89785,-0.0898 1.97974,-0.21089 1.08188,-0.12103 4.25557,-0.42972 7.05265,-0.68598 z m 15.89704,-82.25914 c 2.81923,-1.69523 6.4448,-3.02683 9.49867,-3.48869 1.82027,-0.27527 6.00477,-0.22093 7.83129,0.10172 3.51117,0.62025 7.04662,1.99761 10.20959,3.97753 l 1.48005,0.92646 1.92053,-1.08098 c 3.07589,-1.73129 6.1885,-2.90972 9.48803,-3.59214 1.88558,-0.38999 6.39269,-0.29372 8.25208,0.17626 1.82456,0.46118 3.96437,1.37781 5.50725,2.35914 l 1.11807,0.71114 1.27527,-1.00806 c 3.2049,-2.53338 7.4115,-4.39938 11.23001,-4.98151 0.6758,-0.10302 0.71631,-0.14949 0.90712,-1.04069 0.99868,-4.6642 8.86061,-44.52021 8.79419,-44.5821 -0.0478,-0.0446 -0.68217,0.25662 -1.40964,0.6693 -4.23071,2.39995 -10.47968,4.84726 -17.30893,6.77876 -23.77915,6.72541 -57.9413,8.8371 -87.93232,5.43543 -21.22904,-2.40786 -37.8436,-6.97078 -48.29829,-13.26435 -0.37677,-0.22681 -0.40917,-0.21971 -0.33527,0.0734 0.045,0.17849 1.4231,8.61284 3.06244,18.74302 1.63936,10.13016 3.03059,18.71278 3.09165,19.07249 0.0988,0.58189 0.20913,0.68832 1.00091,0.96531 1.28716,0.4503 4.12411,1.79061 5.58152,2.63699 4.43618,2.57625 8.45631,6.28309 10.56509,9.74174 0.36943,0.6059 0.73262,1.10402 0.80709,1.10695 0.0745,0.003 0.46309,-0.20354 0.86359,-0.45882 1.25505,-0.79998 3.24485,-1.66306 4.79828,-2.08128 2.13397,-0.57451 6.36667,-0.57992 8.59587,-0.011 2.14377,0.54712 4.01892,1.29864 6.13298,2.45798 l 1.8115,0.99341 1.23856,-0.80677 c 7.45508,-4.85604 16.81743,-4.60605 25.44721,0.67949 l 1.62196,0.99342 0.87286,-0.67849 c 0.48007,-0.37317 1.50643,-1.05946 2.28079,-1.52509 z m 8.09156,-43.63139 c 16.88313,-0.30006 34.76271,-2.72357 48.29607,-6.54635 10.60823,-2.99651 18.82226,-7.02091 22.41977,-10.98438 0.94317,-1.03912 0.98587,-1.13475 1.31723,-2.95053 0.18837,-1.03214 0.38563,-2.01744 0.43837,-2.18955 0.0599,-0.19529 -0.008,-0.31294 -0.18252,-0.31294 -0.27466,0 -0.50736,-0.5075 -0.51247,-1.11763 -0.002,-0.21568 0.14729,-0.31293 0.47973,-0.31293 0.47992,0 0.48089,-0.003 0.19174,-0.6481 -1.94923,-4.34698 -10.12495,-9.16655 -21.49216,-12.66956 -12.85031,-3.96006 -28.91773,-6.42868 -47.25017,-7.25961 -9.71132,-0.44017 -26.08673,-0.0595 -35.46649,0.82441 -28.43671,2.67981 -50.42876,9.86362 -55.84277,18.24131 -0.77158,1.19393 -0.83262,1.51155 -0.29052,1.51155 0.42199,0 0.43896,0.0561 0.26388,0.87174 -0.0678,0.31594 -0.24025,0.55882 -0.39675,0.55882 -0.17149,0 -0.24106,0.11907 -0.18285,0.31294 0.0517,0.17211 0.1985,1.03715 0.32627,1.92231 0.26248,1.8185 0.64932,2.4847 2.37811,4.09559 7.37812,6.87493 26.00467,12.66174 49.23477,15.29602 8.75508,0.99283 22.49121,1.68257 29.64991,1.48881 0.84439,-0.0229 3.82377,-0.0822 6.62085,-0.13192 z"
       id="path847-3" />
  </g>
</svg>
